<svg xmlns="http://www.w3.org/2000/svg" viewBox="0 0 64 64" width="128" height="128" aria-hidden="false" role="img">
  <title>Python mark - simple</title>
  <rect width="64" height="64" rx="8" fill="none"/>
  <path d="M42 12c-4-2-10-2-14-2-6 0-11 3-13 8-2 6 0 13 0 13h10v-3c0-2 1-3 3-3h6c2 0 3 1 3 3v4c0 2-1 3-3 3h-6c-2 0-3-1-3-3v-2H15s-1 6 0 11c1 5 6 8 13 8 4 0 10 0 14-2 3-1 6-4 6-8v-21c0-4-3-7-6-8z" fill="#306998"/>
  <circle cx="23" cy="20" r="2.5" fill="#FFD43B"/>
  <circle cx="41" cy="44" r="2.5" fill="#FFD43B"/>
</svg>